<?xml version="1.0" standalone="no"?>
<!DOCTYPE svg PUBLIC "-//W3C//DTD SVG 20010904//EN"
 "http://www.w3.org/TR/2001/REC-SVG-20010904/DTD/svg10.dtd">
<svg version="1.0" xmlns="http://www.w3.org/2000/svg"
 width="260.000000pt" height="260.000000pt" viewBox="0 0 260.000000 260.000000"
 preserveAspectRatio="xMidYMid meet">
<metadata>
Created by potrace 1.11, written by Peter Selinger 2001-2013
</metadata>
<g transform="translate(0.000000,260.000000) scale(0.100000,-0.100000)"
fill="#000000" stroke="none">
<path d="M607 1951 c-2 -3 -3 -294 -3 -646 l1 -640 97 -3 96 -3 -4 423 c-3
233 -6 471 -8 531 -1 59 0 107 4 107 4 0 55 -127 114 -282 59 -156 111 -292
116 -303 9 -20 62 -158 140 -362 l43 -113 98 0 98 0 31 83 c18 45 46 118 62
162 17 44 48 125 69 180 22 55 86 224 144 375 l105 275 -4 -537 -4 -538 97 0
96 0 -1 638 c-1 350 -2 642 -3 648 -1 8 -41 12 -132 11 l-131 0 -14 -31 c-8
-17 -61 -150 -118 -296 -251 -643 -290 -740 -296 -740 -3 0 -19 33 -34 73 -16
39 -59 151 -97 247 -37 96 -116 297 -174 445 -58 149 -109 277 -114 285 -6 12
-34 15 -140 16 -72 1 -133 -1 -134 -5z"/>
</g>
</svg>
